<svg width="586" height="211" viewBox="0 0 586 211" fill="none" xmlns="http://www.w3.org/2000/svg">
<path d="M189.2 164.37H156.14V207H110.32V164.37H0.99V132.76L96.69 3.99999H145.99L57.25 126.09H111.77V88.1H156.14V126.09H189.2V164.37ZM290.251 210.48C273.431 210.48 258.448 206.323 245.301 198.01C232.155 189.697 221.811 177.71 214.271 162.05C206.925 146.197 203.251 127.347 203.251 105.5C203.251 83.6533 206.925 64.9 214.271 49.24C221.811 33.3867 232.155 21.3033 245.301 12.99C258.448 4.67666 273.431 0.519996 290.251 0.519996C307.071 0.519996 322.055 4.67666 335.201 12.99C348.348 21.3033 358.595 33.3867 365.941 49.24C373.481 64.9 377.251 83.6533 377.251 105.5C377.251 127.347 373.481 146.197 365.941 162.05C358.595 177.71 348.348 189.697 335.201 198.01C322.055 206.323 307.071 210.48 290.251 210.48ZM290.251 170.75C302.625 170.75 312.291 165.433 319.251 154.8C326.405 144.167 329.981 127.733 329.981 105.5C329.981 83.2667 326.405 66.8333 319.251 56.2C312.291 45.5667 302.625 40.25 290.251 40.25C278.071 40.25 268.405 45.5667 261.251 56.2C254.291 66.8333 250.811 83.2667 250.811 105.5C250.811 127.733 254.291 144.167 261.251 154.8C268.405 165.433 278.071 170.75 290.251 170.75ZM585.968 164.37H552.908V207H507.088V164.37H397.758V132.76L493.458 3.99999H542.758L454.018 126.09H508.538V88.1H552.908V126.09H585.968V164.37Z" fill="black"/>
<path d="M189.2 164.37H156.14V207H110.32V164.37H0.99V132.76L96.69 3.99999H145.99L57.25 126.09H111.77V88.1H156.14V126.09H189.2V164.37ZM290.251 210.48C273.431 210.48 258.448 206.323 245.301 198.01C232.155 189.697 221.811 177.71 214.271 162.05C206.925 146.197 203.251 127.347 203.251 105.5C203.251 83.6533 206.925 64.9 214.271 49.24C221.811 33.3867 232.155 21.3033 245.301 12.99C258.448 4.67666 273.431 0.519996 290.251 0.519996C307.071 0.519996 322.055 4.67666 335.201 12.99C348.348 21.3033 358.595 33.3867 365.941 49.24C373.481 64.9 377.251 83.6533 377.251 105.5C377.251 127.347 373.481 146.197 365.941 162.05C358.595 177.71 348.348 189.697 335.201 198.01C322.055 206.323 307.071 210.48 290.251 210.48ZM290.251 170.75C302.625 170.75 312.291 165.433 319.251 154.8C326.405 144.167 329.981 127.733 329.981 105.5C329.981 83.2667 326.405 66.8333 319.251 56.2C312.291 45.5667 302.625 40.25 290.251 40.25C278.071 40.25 268.405 45.5667 261.251 56.2C254.291 66.8333 250.811 83.2667 250.811 105.5C250.811 127.733 254.291 144.167 261.251 154.8C268.405 165.433 278.071 170.75 290.251 170.75ZM585.968 164.37H552.908V207H507.088V164.37H397.758V132.76L493.458 3.99999H542.758L454.018 126.09H508.538V88.1H552.908V126.09H585.968V164.37Z" fill="url(#paint0_linear)"/>
<defs>
<linearGradient id="paint0_linear" x1="309.5" y1="-74" x2="309.5" y2="214" gradientUnits="userSpaceOnUse">
<stop offset="0.270833" stop-color="#FF5757"/>
<stop offset="0.921875" stop-color="#0C00FF" stop-opacity="0.52"/>
<stop offset="0.947917" stop-color="#0500FF" stop-opacity="0"/>
</linearGradient>
</defs>
</svg>
