<svg width="24" height="22" viewBox="0 0 24 22" fill="none" xmlns="http://www.w3.org/2000/svg">
<path d="M22.0125 14.9433C20.475 14.9433 18.9875 14.71 17.6 14.29C17.1625 14.15 16.675 14.255 16.3375 14.57L14.375 16.8683C10.8375 15.2933 7.525 12.3183 5.7625 8.9L8.2 6.96333C8.5375 6.63667 8.6375 6.18167 8.5 5.77333C8.0375 4.47833 7.8 3.09 7.8 1.655C7.8 1.025 7.2375 0.5 6.5625 0.5H2.2375C1.5625 0.5 0.75 0.78 0.75 1.655C0.75 12.4933 10.4125 21.5 22.0125 21.5C22.9 21.5 23.25 20.765 23.25 20.1233V16.0983C23.25 15.4683 22.6875 14.9433 22.0125 14.9433Z" fill="#8CA3FF"/>
</svg>
